# xmcd
#
# Track frame offsets: 
#        150
#        21114
#        35160
#        51292
#        64626
#        78057
#        91928
#        110340
#        123953
#        136944
#        151438
#        171966
#        194259
#
# Disc length: 2838 seconds
#
# Revision: 1
# Processed by: cddbd v1.5.2PL0 Copyright (c) Steve Scherf et al.
# Submitted via: ExactAudioCopyFreeDBPlugin 1.0
#
DISCID=a40b140d
DTITLE=Johnny Cash - Remixed
DYEAR=2009
DGENRE=Country
TTITLE0=Get Rhythm (Philip Steir Remix)
TTITLE1=Big River (Count de Money Remix)
TTITLE2=Country Boy (Sonny J Remix)
TTITLE3=I Walk The Line (QDT Muzic Remix feat. Snoop Dogg)
TTITLE4=Doin' My Time (The Heavy Remix)
TTITLE5=Leave That Junk Alone (Alabama 3 Remix)
TTITLE6=Port Of Lonely Hearts (Midnight Juggernauts Remix)
TTITLE7=Folsom Prison Blues (Pete Rock Remix)
TTITLE8=Straight A's In Love (Troublemaker Remix)
TTITLE9=Sugartime (Kennedy Remix)
TTITLE10=Rock Island Line (Wolf Remix)
TTITLE11=Belshazzar (Machine Drum Remix)
TTITLE12=I Heard That Lonesome Whistle Blow (Apparat Remix)
EXTD=YEAR: 2009
EXTT0=
EXTT1=
EXTT2=
EXTT3=
EXTT4=
EXTT5=
EXTT6=
EXTT7=
EXTT8=
EXTT9=
EXTT10=
EXTT11=
EXTT12=
PLAYORDER=
